<?xml version="1.0" encoding="UTF-8"?>
<!-- Generator: Adobe Illustrator 17.0.0, SVG Export Plug-In . SVG Version: 6.00 Build 0)  -->
<!DOCTYPE svg PUBLIC "-//W3C//DTD SVG 1.1//EN" "http://www.w3.org/Graphics/SVG/1.1/DTD/svg11.dtd">
<svg version="1.1" id="Layer_1" xmlns="http://www.w3.org/2000/svg" xmlns:xlink="http://www.w3.org/1999/xlink" x="0px" y="0px" width="512px" height="512px" viewBox="0 0 512 512" enable-background="new 0 0 512 512" xml:space="preserve">
<path fill="#3D5A98" d="M511.999,432c0,44.183-35.816,80-80,80H80c-44.183,0-80-35.817-80-80V80C0,35.817,35.817,0,80,0h351.999  c44.184,0,80,35.817,80,80V432z"/>
<path id="f" fill="#FFFFFF" d="M335.271,512V313.727h66.553l9.965-77.272h-76.518V187.12c0-22.372,6.211-37.618,38.295-37.618  l40.917-0.019v-69.11c-7.077-0.94-31.366-3.044-59.624-3.044c-58.994,0-99.383,36.01-99.383,102.141v56.985h-66.724v77.272h66.724  V512H335.271z"/>
<path fill="#1B3568" d="M414.483,80.373v69.11l-40.917,0.019c-32.084,0-38.295,15.246-38.295,37.618v49.335h76.518l-9.965,77.271  h-66.553V512h96.728c44.184,0,80-35.817,80-80V177.832"/>
</svg>