<?xml version="1.0" encoding="UTF-8"?>
<!-- Generator: Adobe Illustrator 16.0.3, SVG Export Plug-In . SVG Version: 6.00 Build 0)  -->
<!DOCTYPE svg PUBLIC "-//W3C//DTD SVG 1.1//EN" "http://www.w3.org/Graphics/SVG/1.1/DTD/svg11.dtd">
<svg version="1.1" id="Layer_1" xmlns="http://www.w3.org/2000/svg" xmlns:xlink="http://www.w3.org/1999/xlink" x="0px" y="0px" width="500px" height="500px" viewBox="0 0 500 500" enable-background="new 0 0 500 500" xml:space="preserve">
<g>
	<rect fill="#2AA8E0" width="500" height="500.006"/>
	<path fill="#FFFFFF" d="M416.657,146.625c-12.267,5.442-25.45,9.119-39.276,10.768c14.117-8.465,24.977-21.857,30.069-37.832   c-13.199,7.837-27.829,13.535-43.411,16.604c-12.486-13.302-30.264-21.602-49.929-21.602c-37.769,0-68.389,30.624-68.389,68.385   c0,5.372,0.606,10.578,1.766,15.579c-56.83-2.841-107.212-30.063-140.953-71.456c-5.879,10.117-9.252,21.857-9.252,34.392   c0,23.717,12.067,44.665,30.41,56.917c-11.202-0.347-21.744-3.441-30.967-8.556v0.861c0,33.129,23.578,60.771,54.85,67.057   c-5.731,1.555-11.789,2.41-18.019,2.41c-4.396,0-8.695-0.44-12.861-1.243c8.698,27.173,33.952,46.936,63.872,47.506   c-23.39,18.336-52.874,29.272-84.936,29.272c-5.511,0-10.951-0.337-16.299-0.959c30.261,19.386,66.208,30.712,104.844,30.712   c125.777,0,194.561-104.187,194.561-194.565c0-2.954-0.077-5.905-0.188-8.86C395.884,172.39,407.469,160.345,416.657,146.625z"/>
</g>
<g>
</g>
<g>
</g>
<g>
</g>
<g>
</g>
<g>
</g>
<g>
</g>
</svg>